<?xml version="1.0" encoding="UTF-8"?>
<svg width="273px" height="225px" viewBox="0 0 273 225" version="1.1" xmlns="http://www.w3.org/2000/svg" xmlns:xlink="http://www.w3.org/1999/xlink">
    <!-- Generator: Sketch 42 (36781) - http://www.bohemiancoding.com/sketch -->
    <title>MasseyDebateLogo</title>
    <desc>Created with Sketch.</desc>
    <defs></defs>
    <g id="Page-1" stroke="none" stroke-width="1" fill="none" fill-rule="evenodd">
        <g id="MasseyDebateLogo" transform="translate(1.000000, 0.000000)" fill="#FFFFFF" stroke="#FFFFFF">
            <g id="sticks" transform="translate(75.220532, 41.284404)">
                <path d="M60.2949592,65.7614765 L47.3016597,78.5848123 L30.0838701,97.4893931 L17.8481032,109.873125 C17.8481032,109.873125 16.6500257,112.141798 16.3412559,112.505352 C16.2061802,112.664394 15.3916078,114.14954 14.0929288,115.263036 C12.7942498,116.376532 11.0775724,117.806746 11.0775724,117.806746 C11.0775724,117.806746 10.7160273,118.11483 10.2205749,118.282647 C9.72512248,118.450463 8.47585678,118.68264 8.05567506,118.77625 C7.35194207,118.933031 6.75825197,118.77625 6.75825197,118.77625 C6.75825197,118.77625 6.10261411,118.675315 5.77620219,118.570222 C5.44979027,118.465128 5.07154419,118.229641 4.70464505,118.078124 C4.08321592,117.821493 4.04651884,117.806746 4.04651884,117.806746 C4.04651884,117.806746 3.46840155,117.098224 2.89128398,116.441356 C2.31416641,115.784488 1.67537181,114.939078 1.67537181,114.939078 C1.67537181,114.939078 0.991846483,113.629291 0.949749048,112.505352 C0.907651612,111.381413 1.30287548,108.058181 1.30287548,108.058181 C1.30287548,108.058181 1.48369498,107.164034 1.82595175,106.584897 C2.16820853,106.005761 2.50963111,105.625905 2.72233384,105.362249 C3.20420876,104.764943 4.70464505,104.04063 4.70464505,104.04063 L6.72078624,103.733561 L13.9151211,96.6235204 C13.9151211,96.6235204 19.8575717,90.9761047 22.9424913,88.1221183 C26.027411,85.2681319 33.9318752,78.1051957 33.9318752,78.1051957 L53.8828358,58.5406845 L42.8339232,47.1410374 L25.0269097,28.7687614 L16.3412559,21.4967127 L11.9534709,18.1673806 L9.99766732,16.4913374 C9.99766732,16.4913374 9.11914938,16.2850519 8.64069892,16.0987846 C8.16224845,15.9125174 7.32115179,15.4493337 7.32115179,15.4493337 C7.32115179,15.4493337 6.27528926,15.0264041 5.77620219,14.6824507 C5.27711511,14.3384972 4.22794418,13.3176029 4.22794418,13.3176029 L2.52279636,10.7071708 C2.52279636,10.7071708 2.16442874,8.75148612 2.23221916,7.80026755 C2.30000959,6.84904899 2.52279636,5.38716391 2.52279636,5.38716391 C2.52279636,5.38716391 3.66246042,3.4116176 4.446342,2.4927237 C5.23022358,1.57382979 6.75825197,0.484198847 6.75825197,0.484198847 C6.75825197,0.484198847 8.89295309,0.0219729678 9.99766732,0.0219729678 C11.1023816,0.0219729678 13.5559983,0.484198847 13.5559983,0.484198847 L17.6662636,4.36598093 C17.6662636,4.36598093 18.4837051,5.73388671 18.9885298,6.30223478 C19.4933546,6.87058284 19.5378996,8.02720867 19.5378996,8.02720867 L20.4003484,9.92642096 L22.4344636,12.7437106 C22.4344636,12.7437106 31.1555731,23.1063192 35.649647,27.6966498 C40.143721,32.2869803 60.66322,51.7912714 60.66322,51.7912714 C59.9607441,51.7878045 80.1999492,32.2869803 84.6940232,27.6966498 C89.1880971,23.1063192 97.9092065,12.7437106 97.9092065,12.7437106 L99.9433218,9.92642096 L100.805771,8.02720867 C100.805771,8.02720867 100.850316,6.87058284 101.35514,6.30223478 C101.859965,5.73388671 102.677407,4.36598093 102.677407,4.36598093 L106.787672,0.484198847 C106.787672,0.484198847 109.241289,0.0219729678 110.346003,0.0219729678 C111.450717,0.0219729678 113.585418,0.484198847 113.585418,0.484198847 C113.585418,0.484198847 115.113447,1.57382979 115.897328,2.4927237 C116.68121,3.4116176 117.820874,5.38716391 117.820874,5.38716391 C117.820874,5.38716391 118.043661,6.84904899 118.111451,7.80026755 C118.179241,8.75148612 117.820874,10.7071708 117.820874,10.7071708 L116.115726,13.3176029 C116.115726,13.3176029 115.066555,14.3384972 114.567468,14.6824507 C114.068381,15.0264041 113.022518,15.4493337 113.022518,15.4493337 C113.022518,15.4493337 112.181422,15.9125174 111.702971,16.0987846 C111.224521,16.2850519 110.346003,16.4913374 110.346003,16.4913374 L108.390199,18.1673806 L104.002414,21.4967127 L95.3167605,28.7687614 L77.509747,47.1410374 L66.4608344,58.5406845 L86.411795,78.1051957 C86.411795,78.1051957 94.3162592,85.2681319 97.4011789,88.1221183 C100.486099,90.9761047 106.428549,96.6235204 106.428549,96.6235204 L113.622884,103.733561 L115.639025,104.04063 C115.639025,104.04063 117.139461,104.764943 117.621336,105.362249 C117.834039,105.625905 118.175462,106.005761 118.517718,106.584897 C118.859975,107.164034 119.040795,108.058181 119.040795,108.058181 C119.040795,108.058181 119.436019,111.381413 119.393921,112.505352 C119.351824,113.629291 118.668298,114.939078 118.668298,114.939078 C118.668298,114.939078 118.029504,115.784488 117.452386,116.441356 C116.875269,117.098224 116.297151,117.806746 116.297151,117.806746 C116.297151,117.806746 116.260454,117.821493 115.639025,118.078124 C115.272126,118.229641 114.89388,118.465128 114.567468,118.570222 C114.241056,118.675315 113.585418,118.77625 113.585418,118.77625 C113.585418,118.77625 112.991728,118.933031 112.287995,118.77625 C111.867813,118.68264 110.618548,118.450463 110.123095,118.282647 C109.627643,118.11483 109.266098,117.806746 109.266098,117.806746 C109.266098,117.806746 107.54942,116.376532 106.250741,115.263036 C104.952062,114.14954 104.13749,112.664394 104.002414,112.505352 C103.693644,112.141798 102.495567,109.873125 102.495567,109.873125 L90.2598001,97.4893931 L73.0420105,78.5848123 L59.5761918,65.7708485"></path>
            </g>
            <path d="M135.309258,211.526604 C129.771453,214.56749 98.7921808,233.029835 102.892671,219.571343 C113.400408,219.335625 119.999629,216.309297 129.451093,210.295901 C120.802659,210.313244 92.451697,202.624023 83.5119245,194.829784 C98.40754,195.946396 81.0526814,188.190287 75.3857113,171.213862 C86.5209709,175.548384 101.071297,172.168172 111.845897,178.093884 C123.613905,184.565942 128.434367,194.68335 134.927412,205.197547 C142.565633,194.68335 147.386095,184.565942 159.154103,178.093884 C169.928703,172.168172 184.479029,175.548384 195.614289,171.213862 C189.947319,188.190287 172.59246,195.946396 187.488076,194.829784 C178.548303,202.624023 150.197341,210.313244 141.548907,210.295901 C151.000371,216.309297 157.599592,219.335625 168.107329,219.571343 C172.207819,233.029835 141.228547,214.56749 135.690742,211.526604 L135.309258,211.526604 Z" id="Path-9"></path>
            <path d="M16.7600782,11.9417615 C5.56802877,30.2300501 -5.7732654,64.0374987 15.1718966,82.2037563 C18.2853983,84.9041734 19.9645575,75.4406532 21.720176,71.7089406 C24.0151073,66.8308736 26.3559533,61.8284285 27.2587081,56.5122351 C30.0484916,40.0836 21.4219216,27.544948 18.02112,12.0497668 L16.7600782,11.9417615 Z" id="Path"></path>
            <path d="M30.5585314,161.037656 C27.5103753,163.169978 24.2473173,165.023216 21.4140631,167.434622 C17.6497092,170.638495 13.7558955,173.838398 10.8323968,177.82673 C10.736951,177.95694 -0.652314763,197.365859 0.0294262711,197.196374 C4.54011926,196.074984 8.37697415,192.90291 12.8964101,191.817412 C16.7308725,190.896434 20.9891353,192.566071 24.7131585,191.267728 C45.0101782,184.191375 52.5038614,172.231417 57.5026365,153.522741 C53.7318768,148.671011 51.502658,155.885917 54.7862235,146.717676 C68.1336817,124.784359 93.1618898,106.741265 80.5656034,77.5157571 C80.5656034,77.5157571 79.2929962,79.9721566 78.591848,80.9508489 C77.8906998,81.9295412 76.8167752,82.9417805 76.8167752,82.9417805 C76.8167752,82.9417805 73.64574,84.9977486 72.9332414,85.7074607 C72.2207429,86.4171728 71.8602059,86.9478748 71.8602059,86.9478748 L70.8048438,88.6991351 C70.8048438,88.6991351 70.3460868,88.4364853 70.0781206,88.1854167 C69.8101544,87.934348 69.3314485,87.3186498 69.3314485,87.3186498 L68.7733756,86.4171728 C68.7733756,86.4171728 67.9135468,89.5898925 67.5754994,90.8494708 C67.237452,92.109049 67.254997,92.0146219 67.1804745,92.2277798 C67.1059519,92.4409376 66.9302254,92.6340988 66.9302254,92.6340988 C66.9302254,92.6340988 66.2605869,93.2949828 65.8471818,93.5812337 C65.4337768,93.8674845 65.0158127,94.1426256 65.0158127,94.1426256 L64.0680079,94.6605697 L63.250795,95.7703918 L62.1452255,96.9399298 L61.1414527,98.6647851 L59.8740629,100.604943 L58.8946241,102.773808 L58.0190098,104.592909 L57.6596794,106.347419 L56.1626654,108.227279 L55.5102481,105.275935 L54.1457312,103.311375 L52.6994577,102.10758 L51.1406318,104.757838 L50.1360479,107.049385 L49.1963544,109.414866 L47.8226792,112.5 L46.8804349,114.212268 L45.4582642,115.69113 L44.1350498,117.08213 L42.004552,119.3849 L40.0594855,121.780205 L38.5903202,124.008454 L37.4313268,125.980952 L36.1233805,128.572297 C36.1233805,128.572297 35.5934164,129.663506 35.350047,130.164975 C35.1066776,130.666444 34.9596041,130.970288 34.9596041,130.970288 C34.9596041,130.970288 34.5144026,131.845111 34.1566781,132.66993 C33.7989536,133.49475 33.5414294,134.239986 33.4909699,134.38346 C33.3891626,134.672934 32.7158255,137.350129 32.7158255,137.350129 L31.985809,142.395107 L31.9274077,160.602364 L30.2171412,161.390045" id="Path-5" transform="translate(42.004552, 137.356617) scale(-1, 1) translate(-42.004552, -137.356617) "></path>
            <path d="M217.064235,161.033365 C214.016079,163.165687 210.753021,165.018926 207.919767,167.430331 C204.155413,170.634204 200.261599,173.834107 197.3381,177.822439 C197.242654,177.95265 185.853389,197.361569 186.53513,197.192083 C191.045823,196.070693 194.882678,192.898619 199.402114,191.813121 C203.236576,190.892144 207.494839,192.561781 211.218862,191.263437 C231.515882,184.187084 239.009565,172.227127 244.00834,153.51845 C240.23758,148.66672 238.008361,155.881626 241.291927,146.713385 C254.639385,124.780069 279.667593,106.736975 267.071307,77.5114663 C267.071307,77.5114663 265.7987,79.9678658 265.097551,80.9465581 C264.396403,81.9252504 263.322479,82.9374897 263.322479,82.9374897 C263.322479,82.9374897 260.151443,84.9934578 259.438945,85.7031699 C258.726446,86.412882 258.365909,86.943584 258.365909,86.943584 L257.310547,88.6948443 C257.310547,88.6948443 256.85179,88.4321946 256.583824,88.1811259 C256.315858,87.9300572 255.837152,87.314359 255.837152,87.314359 L255.279079,86.412882 C255.279079,86.412882 254.41925,89.5856017 254.081203,90.84518 C253.743155,92.1047582 253.7607,92.0103312 253.686178,92.223489 C253.611655,92.4366468 253.435929,92.629808 253.435929,92.629808 C253.435929,92.629808 252.76629,93.290692 252.352885,93.5769429 C251.93948,93.8631937 251.521516,94.1383349 251.521516,94.1383349 L250.573711,94.6562789 L249.756498,95.766101 L248.650929,96.935639 L247.647156,98.6604943 L246.379766,100.600652 L245.400327,102.769517 L244.524713,104.588618 L244.165383,106.343128 L242.668369,108.222988 L242.015952,105.271644 L240.651435,103.307084 L239.205161,102.10329 L237.646335,104.753548 L236.641751,107.045095 L235.702058,109.410576 L234.328383,112.495709 L233.386138,114.207977 L231.963968,115.686839 L230.640753,117.07784 L228.510255,119.380609 L226.565189,121.775914 L225.096024,124.004163 L223.93703,125.976661 L222.629084,128.568006 C222.629084,128.568006 222.09912,129.659216 221.85575,130.160684 C221.612381,130.662153 221.465308,130.965997 221.465308,130.965997 C221.465308,130.965997 221.020106,131.84082 220.662382,132.66564 C220.304657,133.490459 220.047133,134.235695 219.996673,134.379169 C219.894866,134.668643 219.221529,137.345838 219.221529,137.345838 L218.491512,142.390816 L218.433111,160.598073 L216.722845,161.385755" id="Path-5-Copy"></path>
            <path d="M256.544446,11.353211 C245.352396,29.6414996 234.011102,63.4489482 254.956264,81.6152058 C258.069766,84.3156229 259.748925,74.8521027 261.504543,71.1203901 C263.799475,66.2423231 266.140321,61.239878 267.043076,55.9236846 C269.832859,39.4950495 261.206289,26.9563975 257.805487,11.4612163 L256.544446,11.353211 Z" id="Path-Copy" transform="translate(255.414871, 46.723061) scale(-1, 1) translate(-255.414871, -46.723061) "></path>
            <path d="M207.080249,33.9576453 L208.208109,35.2078891 L232.899744,59.9432289 L233.859577,61.8619355 L234.0734,66.7240299 C234.0734,66.7240299 233.782829,68.8116714 230.22459,69.8436287 C226.666352,70.875586 215.214453,67.1051307 215.214453,67.1051307 C215.214453,67.1051307 209.34012,63.6896643 206.782342,61.2614694 C205.609845,60.1483745 202.378752,55.7758897 200.443224,50.9507468 C198.507696,46.1256039 199.303879,47.5211086 198.772298,46.0362304 C197.816905,43.3675107 198.092383,38.1854009 198.772298,36.0109286 C199.452213,33.8364563 201.006355,33.9576453 201.006355,33.9576453 L207.080249,33.9576453 Z" id="RHHB" transform="translate(216.114083, 51.962542) scale(1, -1) rotate(180.000000) translate(-216.114083, -51.962542) "></path>
            <path d="M174.106865,0.930122356 L175.234724,2.18036616 L199.92636,26.9157059 L200.886193,28.8344126 L201.100016,33.696507 C201.100016,33.696507 200.809444,35.7841484 197.251206,36.8161057 C193.692968,37.848063 182.241069,34.0776078 182.241069,34.0776078 C182.241069,34.0776078 176.366736,30.6621414 173.808958,28.2339464 C172.636461,27.1208516 169.405368,22.7483667 167.46984,17.9232238 C165.534312,13.0980809 166.330495,14.4935856 165.798914,13.0087075 C164.843521,10.3399878 165.118999,5.15787797 165.798914,2.98340568 C166.478829,0.808933382 168.032971,0.930122356 168.032971,0.930122356 L174.106865,0.930122356 Z" id="RHHT" transform="translate(183.140699, 18.935019) scale(-1, -1) rotate(-90.000000) translate(-183.140699, -18.935019) "></path>
            <path d="M46.3350015,33.9576453 L47.4628614,35.2078891 L72.1544965,59.9432289 L73.1143302,61.8619355 L73.3281529,66.7240299 C73.3281529,66.7240299 73.0375814,68.8116714 69.479343,69.8436287 C65.9211046,70.875586 54.4692054,67.1051307 54.4692054,67.1051307 C54.4692054,67.1051307 48.594873,63.6896643 46.0370947,61.2614694 C44.8645983,60.1483745 41.6335053,55.7758897 39.6979772,50.9507468 C37.7624491,46.1256039 38.5586321,47.5211086 38.0270506,46.0362304 C37.0716578,43.3675107 37.3471357,38.1854009 38.0270506,36.0109286 C38.7069655,33.8364563 40.2611081,33.9576453 40.2611081,33.9576453 L46.3350015,33.9576453 Z" id="LHHB"></path>
            <path d="M79.3083855,0.930122356 L80.4362454,2.18036616 L105.12788,26.9157059 L106.087714,28.8344126 L106.301537,33.696507 C106.301537,33.696507 106.010965,35.7841484 102.452727,36.8161057 C98.8944886,37.848063 87.4425894,34.0776078 87.4425894,34.0776078 C87.4425894,34.0776078 81.568257,30.6621414 79.0104787,28.2339464 C77.8379823,27.1208516 74.6068893,22.7483667 72.6713612,17.9232238 C70.7358331,13.0980809 71.5320161,14.4935856 71.0004347,13.0087075 C70.0450418,10.3399878 70.3205198,5.15787797 71.0004347,2.98340568 C71.6803496,0.808933382 73.2344922,0.930122356 73.2344922,0.930122356 L79.3083855,0.930122356 Z" id="LHHT" transform="translate(88.342220, 18.935019) scale(-1, 1) rotate(90.000000) translate(-88.342220, -18.935019) "></path>
            <path d="M82.5428326,38.6850134 C82.5428326,38.6850134 78.8610056,40.0082865 77.5419141,41.2370773 C76.9419377,41.7959813 76.103844,42.827978 75.6169944,43.9878036 C75.1301448,45.1476292 74.9104013,46.6944242 74.9104013,46.6944242 L74.5608785,51.003642 L74.9104013,52.3883957 L74.9104013,53.3036756 L74.6961567,54.1066263 C74.6961567,54.1066263 74.1182681,54.8226748 73.7886317,55.1435688 C73.4589953,55.4644629 71.8715154,55.1435688 71.8715154,55.1435688 L51.8711908,35.1289083 L51.6818335,34.4161344 L51.8711908,33.6026012 L70.5301234,15.5474891 C70.5301234,15.5474891 70.9903211,15.2172831 71.2358369,15.2172831 C71.4813526,15.2172831 71.8715154,15.5474891 71.8715154,15.5474891 L90.5977158,34.0637256 C90.5977158,34.0637256 90.9862106,35.8354919 90.9862106,36.6650038 C90.9862106,37.4945156 90.5977158,38.0859016 90.5977158,38.0859016 C90.5977158,38.0859016 90.0801169,38.9631752 89.8098116,39.1200583 C89.5395063,39.2769414 88.8158926,39.1200583 88.8158926,39.1200583 C88.8158926,39.1200583 86.5032505,38.7041609 85.3480327,38.6850134 C84.1928149,38.6658659 82.5428326,38.6850134 82.5428326,38.6850134 Z" id="LHB"></path>
            <path d="M211.345114,38.6850134 C211.345114,38.6850134 207.663287,40.0082865 206.344195,41.2370773 C205.744219,41.7959813 204.906125,42.827978 204.419276,43.9878036 C203.932426,45.1476292 203.712683,46.6944242 203.712683,46.6944242 L203.36316,51.003642 L203.712683,52.3883957 L203.712683,53.3036756 L203.498438,54.1066263 C203.498438,54.1066263 202.920549,54.8226748 202.590913,55.1435688 C202.261277,55.4644629 200.673797,55.1435688 200.673797,55.1435688 L180.673472,35.1289083 L180.484115,34.4161344 L180.673472,33.6026012 L199.332405,15.5474891 C199.332405,15.5474891 199.792602,15.2172831 200.038118,15.2172831 C200.283634,15.2172831 200.673797,15.5474891 200.673797,15.5474891 L219.399997,34.0637256 C219.399997,34.0637256 219.788492,35.8354919 219.788492,36.6650038 C219.788492,37.4945156 219.399997,38.0859016 219.399997,38.0859016 C219.399997,38.0859016 218.882398,38.9631752 218.612093,39.1200583 C218.341788,39.2769414 217.618174,39.1200583 217.618174,39.1200583 C217.618174,39.1200583 215.305532,38.7041609 214.150314,38.6850134 C212.995096,38.6658659 211.345114,38.6850134 211.345114,38.6850134 Z" id="RHB" transform="translate(200.136303, 35.251736) scale(-1, 1) translate(-200.136303, -35.251736) "></path>
        </g>
    </g>
</svg>