<?xml version="1.0" standalone="no"?>
<!DOCTYPE svg PUBLIC "-//W3C//DTD SVG 20010904//EN"
 "http://www.w3.org/TR/2001/REC-SVG-20010904/DTD/svg10.dtd">
<svg version="1.0" xmlns="http://www.w3.org/2000/svg"
 width="1023.000000pt" height="1023.000000pt" viewBox="0 0 1023.000000 1023.000000"
 preserveAspectRatio="xMidYMid meet">
<metadata>
Created by potrace 1.11, written by Peter Selinger 2001-2013
</metadata>
<g transform="translate(0.000000,1023.000000) scale(0.100000,-0.100000)"
fill="#000000" stroke="none">
<path d="M2827 9329 c-158 -17 -187 -52 -187 -224 l0 -110 498 -497 c329 -328
511 -503 539 -517 34 -17 61 -21 139 -21 l97 0 42 43 c63 62 81 129 65 245
-25 187 -85 401 -139 491 -53 90 -145 218 -189 264 -49 51 -188 145 -288 195
-229 115 -392 152 -577 131z"/>
<path d="M7230 9330 c-198 -27 -492 -163 -640 -297 -111 -101 -245 -305 -284
-434 -81 -267 -101 -456 -58 -538 13 -24 38 -57 55 -72 30 -28 36 -29 130 -29
79 0 106 4 140 21 28 14 209 187 535 512 l492 492 0 130 c0 108 -3 134 -18
151 -29 36 -77 54 -174 64 -102 11 -99 11 -178 0z"/>
<path d="M569 8868 c-202 -344 -362 -775 -430 -1155 -27 -149 -37 -460 -20
-597 39 -304 161 -564 362 -768 101 -102 128 -111 173 -57 37 44 48 67 101
219 26 74 72 188 102 253 118 256 166 416 183 612 12 137 7 242 -21 404 -27
156 -63 282 -175 608 -53 153 -112 339 -133 413 -37 135 -37 135 -68 138 -29
3 -34 -1 -74 -70z"/>
<path d="M9549 8923 c-9 -10 -26 -58 -38 -108 -13 -49 -57 -189 -98 -310 -129
-379 -151 -447 -177 -550 -98 -379 -85 -677 42 -1000 22 -55 61 -145 87 -200
25 -55 66 -157 90 -226 50 -145 77 -203 113 -241 44 -48 69 -39 167 60 205
206 328 472 365 792 15 128 8 394 -15 537 -49 312 -166 664 -331 993 -129 255
-165 300 -205 253z"/>
<path d="M2576 8702 c-509 -490 -636 -616 -636 -636 0 -14 121 -142 388 -409
365 -365 389 -387 423 -387 25 0 42 7 59 25 22 23 23 33 25 172 4 238 37 306
185 381 77 38 91 42 160 42 41 0 104 -5 139 -11 60 -9 65 -8 87 12 32 30 43
75 34 134 -7 48 -12 53 -373 412 -201 200 -371 363 -377 363 -7 0 -58 -44
-114 -98z"/>
<path d="M7182 8439 c-354 -348 -367 -362 -375 -407 -11 -60 -3 -100 26 -136
l23 -28 102 16 c131 21 150 20 200 -4 22 -11 45 -20 50 -20 5 0 36 -18 69 -39
51 -33 66 -49 92 -103 36 -74 54 -199 46 -318 -5 -69 -4 -77 19 -104 20 -24
32 -29 62 -28 37 1 58 21 422 384 220 221 385 393 389 408 5 21 -10 40 -124
150 -71 69 -238 230 -370 358 -133 127 -247 232 -253 232 -6 0 -176 -162 -378
-361z"/>
<path d="M1460 8062 c-36 -36 -49 -83 -56 -207 -5 -75 -3 -121 10 -183 43
-212 190 -499 321 -627 54 -53 193 -152 285 -203 102 -56 391 -126 525 -127
104 0 149 18 205 81 l32 37 -7 101 c-4 62 -13 113 -24 133 -9 18 -239 256
-511 528 l-494 495 -129 0 c-128 0 -129 0 -157 -28z"/>
<path d="M8000 7588 c-272 -274 -501 -511 -509 -526 -8 -15 -16 -69 -19 -121
-6 -109 7 -144 67 -184 61 -40 106 -50 198 -43 109 8 422 88 482 122 96 56
256 170 300 214 139 139 294 461 322 670 12 91 0 242 -25 302 -26 60 -48 68
-193 67 l-128 -2 -495 -499z"/>
<path d="M3113 7803 c-33 -6 -109 -78 -155 -146 -41 -60 -42 -62 -42 -153 -1
-90 0 -92 39 -151 54 -81 97 -116 196 -158 46 -20 98 -49 114 -64 17 -15 59
-50 95 -76 73 -55 331 -267 400 -329 25 -23 283 -285 573 -584 l528 -543 -303
-297 c-414 -405 -487 -475 -683 -653 -223 -202 -455 -419 -641 -601 -131 -128
-156 -148 -183 -148 -44 0 -115 -50 -146 -104 -18 -31 -27 -66 -34 -133 -14
-133 1 -179 86 -270 66 -71 127 -89 221 -68 54 13 76 25 143 81 86 72 127 119
169 195 18 33 122 149 292 323 145 149 406 426 579 616 174 190 411 438 529
553 l213 207 81 -77 c45 -43 150 -143 235 -223 84 -80 289 -293 454 -475 166
-181 419 -449 563 -595 143 -146 269 -281 279 -300 61 -121 221 -277 308 -301
110 -31 188 -4 266 92 70 87 78 133 56 299 -11 87 -102 180 -177 180 -27 0
-52 20 -187 153 -181 178 -414 397 -656 616 -184 167 -286 265 -697 668 l-267
262 538 554 c535 550 671 678 936 882 50 38 107 83 128 101 21 17 64 41 97 53
87 32 150 79 196 148 93 137 65 289 -74 414 -56 50 -82 59 -176 59 -115 0
-129 -6 -220 -91 -91 -85 -138 -151 -155 -215 -15 -55 -73 -139 -198 -286
-253 -295 -409 -460 -846 -890 l-465 -457 -269 257 c-673 642 -714 684 -1016
1034 -163 189 -219 267 -242 333 -25 75 -67 135 -158 222 -57 55 -93 82 -116
86 -35 7 -171 7 -208 0z"/>
<path d="M109 6424 c-87 -230 -109 -346 -109 -574 0 -271 36 -418 166 -679
109 -219 194 -345 534 -791 260 -340 377 -514 417 -620 38 -100 39 -110 13
-103 -26 7 -105 -32 -125 -63 -15 -23 -14 -31 21 -147 99 -332 233 -597 401
-790 178 -205 456 -387 758 -498 l90 -33 205 -1 c232 -1 237 -2 417 -93 151
-76 261 -118 274 -105 8 8 6 19 -5 42 -9 17 -14 31 -11 31 2 0 28 -18 57 -40
114 -86 390 -213 672 -309 320 -109 784 -221 917 -221 22 0 39 -3 39 -7 0 -11
-217 -134 -321 -183 -171 -79 -352 -126 -540 -138 -99 -7 -103 -8 -110 -32
-13 -46 -9 -105 7 -129 68 -97 273 -53 683 145 106 52 273 138 370 191 97 54
178 99 181 101 4 1 71 -34 151 -79 192 -109 535 -278 664 -328 135 -53 266
-84 328 -78 90 8 130 67 111 159 l-9 43 -102 7 c-193 13 -368 58 -542 138
-104 49 -321 172 -321 183 0 4 18 7 39 7 104 0 499 89 776 175 310 96 615 226
774 329 54 35 69 41 60 25 -17 -32 1 -44 48 -29 21 7 112 48 203 91 219 104
243 110 465 107 174 -3 183 -2 252 24 518 192 839 479 1044 930 49 110 108
272 145 398 24 83 24 93 10 114 -19 30 -100 70 -126 63 -26 -7 -26 -6 11 94
38 104 126 239 353 539 291 384 340 451 423 575 194 289 297 527 339 785 19
115 13 355 -11 470 -21 99 -98 325 -110 324 -6 0 -27 -30 -47 -65 -48 -82 -86
-123 -178 -187 -47 -32 -90 -72 -115 -107 l-40 -56 -36 42 c-20 23 -38 38 -41
33 -3 -5 -18 -54 -33 -108 -31 -117 -43 -137 -98 -170 -51 -30 -107 -95 -169
-196 -52 -84 -118 -228 -118 -257 0 -11 -11 -30 -24 -42 l-23 -22 -7 42 c-4
22 -18 57 -33 78 -27 37 -83 90 -95 91 -12 0 -80 -129 -125 -239 -73 -177
-100 -221 -187 -311 -164 -170 -223 -254 -330 -467 -129 -259 -142 -331 -152
-835 -6 -353 -7 -357 -28 -364 -29 -9 -266 -169 -346 -233 -132 -106 -295
-258 -360 -336 -59 -71 -203 -309 -381 -627 l-43 -78 -91 0 c-166 0 -161 25
59 290 149 179 260 356 329 528 14 34 22 64 17 67 -4 3 -27 -2 -51 -11 -119
-43 -271 -65 -599 -89 -118 -9 -262 -22 -320 -31 -308 -43 -518 -152 -761
-394 -138 -137 -209 -228 -409 -520 -73 -107 -138 -201 -145 -208 -10 -11 -32
19 -118 160 -204 333 -296 458 -450 604 -149 141 -324 252 -477 302 -136 45
-269 65 -575 87 -323 24 -475 47 -594 89 -24 9 -47 14 -51 11 -5 -3 3 -33 17
-67 71 -176 178 -346 341 -545 133 -161 162 -202 162 -228 0 -36 -20 -44 -124
-46 l-98 -2 -165 289 c-91 159 -182 314 -202 344 -46 71 -214 239 -361 362
-115 95 -365 269 -407 282 l-23 7 0 325 c0 472 -20 587 -142 837 -115 235
-205 363 -358 512 -68 66 -98 120 -179 313 -46 109 -105 222 -117 222 -3 0
-18 -10 -35 -22 -40 -30 -86 -104 -95 -152 l-7 -40 -23 28 c-13 15 -24 36 -24
48 0 27 -70 175 -122 257 -58 93 -114 156 -167 190 -57 38 -65 50 -91 150 -11
44 -25 93 -31 108 l-10 27 -38 -44 -38 -44 -16 29 c-23 45 -75 96 -142 143
-102 70 -128 99 -180 200 -15 28 -31 52 -36 52 -5 0 -14 -12 -20 -26z"/>
</g>
</svg>
