<svg width="1265" height="651" xmlns="http://www.w3.org/2000/svg"><g><path d="M-39,-98L-94,483L-70,282Z" fill="#ffd1bb" stroke="#ffd1bb"/><path d="M-39,-98L-70,282L-31,87Z" fill="#ffe9db" stroke="#ffe9db"/><path d="M-39,-98L-31,87L114,-43Z" fill="#fff1eb" stroke="#fff1eb"/><path d="M-39,-98L114,-43L219,-90Z" fill="#feeae1" stroke="#feeae1"/><path d="M-39,-98L219,-90L858,-116Z" fill="#fed4c5" stroke="#fed4c5"/><path d="M-39,-98L858,-116L1012,-129Z" fill="#fdb7a7" stroke="#fdb7a7"/><path d="M114,-43L-31,87L53,91Z" fill="#ffe8dc" stroke="#ffe8dc"/><path d="M114,-43L53,91L282,111Z" fill="#feddce" stroke="#feddce"/><path d="M114,-43L282,111L219,-90Z" fill="#fee0d5" stroke="#fee0d5"/><path d="M219,-90L282,111L396,-26Z" fill="#fed8ca" stroke="#fed8ca"/><path d="M219,-90L396,-26L572,-27Z" fill="#fecebf" stroke="#fecebf"/><path d="M219,-90L572,-27L858,-116Z" fill="#fdbeae" stroke="#fdbeae"/><path d="M396,-26L282,111L385,91Z" fill="#fecab5" stroke="#fecab5"/><path d="M396,-26L385,91L524,39Z" fill="#fec5b2" stroke="#fec5b2"/><path d="M396,-26L524,39L572,-27Z" fill="#fdc3b4" stroke="#fdc3b4"/><path d="M572,-27L524,39L621,59Z" fill="#fdb8a6" stroke="#fdb8a6"/><path d="M572,-27L621,59L729,-49Z" fill="#fdb4a4" stroke="#fdb4a4"/><path d="M572,-27L729,-49L858,-116Z" fill="#f7a99f" stroke="#f7a99f"/><path d="M729,-49L621,59L778,187Z" fill="#f7a18f" stroke="#f7a18f"/><path d="M729,-49L778,187L866,116Z" fill="#f19484" stroke="#f19484"/><path d="M729,-49L866,116L930,37Z" fill="#ed958d" stroke="#ed958d"/><path d="M729,-49L930,37L858,-116Z" fill="#ee9a96" stroke="#ee9a96"/><path d="M858,-116L930,37L1012,-129Z" fill="#e68e8f" stroke="#e68e8f"/><path d="M1012,-129L930,37L1115,64Z" fill="#e08389" stroke="#e08389"/><path d="M1012,-129L1115,64L1149,-59Z" fill="#da8084" stroke="#da8084"/><path d="M1012,-129L1149,-59L1274,-59Z" fill="#d68080" stroke="#d68080"/><path d="M1012,-129L1274,-59L1477,-47Z" fill="#ce8080" stroke="#ce8080"/><path d="M1149,-59L1115,64L1241,105Z" fill="#d57a77" stroke="#d57a77"/><path d="M1149,-59L1241,105L1274,-59Z" fill="#d18080" stroke="#d18080"/><path d="M1274,-59L1241,105L1413,52Z" fill="#ca7b78" stroke="#ca7b78"/><path d="M1274,-59L1413,52L1477,-47Z" fill="#c48080" stroke="#c48080"/><path d="M1477,-47L1413,52L1386,216Z" fill="#c1756d" stroke="#c1756d"/><path d="M1477,-47L1386,216L1458,408Z" fill="#c0604f" stroke="#c0604f"/><path d="M1477,-47L1458,408L1476,712Z" fill="#bc3627" stroke="#bc3627"/><path d="M-31,87L-70,282L53,91Z" fill="#ffddc8" stroke="#ffddc8"/><path d="M53,91L-70,282L119,239Z" fill="#ffcdb4" stroke="#ffcdb4"/><path d="M53,91L119,239L282,111Z" fill="#fed0b6" stroke="#fed0b6"/><path d="M282,111L119,239L282,192Z" fill="#fec2a5" stroke="#fec2a5"/><path d="M282,111L282,192L337,213Z" fill="#febe9f" stroke="#febe9f"/><path d="M282,111L337,213L385,91Z" fill="#fec0a3" stroke="#fec0a3"/><path d="M385,91L337,213L549,168Z" fill="#feb495" stroke="#feb495"/><path d="M385,91L549,168L524,39Z" fill="#fdb69c" stroke="#fdb69c"/><path d="M524,39L549,168L621,59Z" fill="#fdaf96" stroke="#fdaf96"/><path d="M621,59L549,168L632,193Z" fill="#fda485" stroke="#fda485"/><path d="M621,59L632,193L778,187Z" fill="#fa997d" stroke="#fa997d"/><path d="M866,116L778,187L959,197Z" fill="#eb7d6a" stroke="#eb7d6a"/><path d="M866,116L959,197L930,37Z" fill="#e87f73" stroke="#e87f73"/><path d="M930,37L959,197L1115,64Z" fill="#e17672" stroke="#e17672"/><path d="M1115,64L959,197L1082,281Z" fill="#dd6359" stroke="#dd6359"/><path d="M1115,64L1082,281L1216,241Z" fill="#d7604f" stroke="#d7604f"/><path d="M1115,64L1216,241L1241,105Z" fill="#d36c5d" stroke="#d36c5d"/><path d="M1241,105L1216,241L1386,216Z" fill="#cc6250" stroke="#cc6250"/><path d="M1241,105L1386,216L1413,52Z" fill="#c76d60" stroke="#c76d60"/><path d="M-70,282L-94,483L-19,319Z" fill="#fdad9a" stroke="#fdad9a"/><path d="M-70,282L-19,319L119,239Z" fill="#ffbca4" stroke="#ffbca4"/><path d="M119,239L-19,319L113,324Z" fill="#ffb499" stroke="#ffb499"/><path d="M119,239L113,324L283,340Z" fill="#fea98c" stroke="#fea98c"/><path d="M119,239L283,340L282,192Z" fill="#feaf91" stroke="#feaf91"/><path d="M282,192L283,340L337,213Z" fill="#feab8b" stroke="#feab8b"/><path d="M337,213L283,340L435,333Z" fill="#fe9a79" stroke="#fe9a79"/><path d="M337,213L435,333L549,168Z" fill="#fe9f7e" stroke="#fe9f7e"/><path d="M549,168L435,333L508,389Z" fill="#fd8a68" stroke="#fd8a68"/><path d="M549,168L508,389L632,193Z" fill="#fd8f6d" stroke="#fd8f6d"/><path d="M632,193L508,389L707,417Z" fill="#fd7452" stroke="#fd7452"/><path d="M632,193L707,417L778,187Z" fill="#f87a5c" stroke="#f87a5c"/><path d="M778,187L707,417L866,340Z" fill="#f26349" stroke="#f26349"/><path d="M778,187L866,340L959,197Z" fill="#eb6b57" stroke="#eb6b57"/><path d="M959,197L866,340L939,386Z" fill="#e75341" stroke="#e75341"/><path d="M959,197L939,386L1082,281Z" fill="#e24f42" stroke="#e24f42"/><path d="M1082,281L939,386L1110,377Z" fill="#dd3930" stroke="#dd3930"/><path d="M1082,281L1110,377L1216,241Z" fill="#d74634" stroke="#d74634"/><path d="M1216,241L1110,377L1236,366Z" fill="#d33f2c" stroke="#d33f2c"/><path d="M1216,241L1236,366L1386,216Z" fill="#cc4c3a" stroke="#cc4c3a"/><path d="M1386,216L1236,366L1458,408Z" fill="#c63e2c" stroke="#c63e2c"/><path d="M-19,319L-94,483L125,535Z" fill="#fa9085" stroke="#fa9085"/><path d="M-19,319L125,535L113,324Z" fill="#fc9885" stroke="#fc9885"/><path d="M113,324L125,535L169,467Z" fill="#fa8576" stroke="#fa8576"/><path d="M113,324L169,467L283,340Z" fill="#fc937b" stroke="#fc937b"/><path d="M283,340L169,467L355,551Z" fill="#f97766" stroke="#f97766"/><path d="M283,340L355,551L435,333Z" fill="#fa7b63" stroke="#fa7b63"/><path d="M435,333L355,551L508,389Z" fill="#fa6e58" stroke="#fa6e58"/><path d="M508,389L355,551L500,574Z" fill="#f75548" stroke="#f75548"/><path d="M508,389L500,574L699,497Z" fill="#f74e3e" stroke="#f74e3e"/><path d="M508,389L699,497L707,417Z" fill="#f8553f" stroke="#f8553f"/><path d="M707,417L699,497L828,514Z" fill="#ef3c31" stroke="#ef3c31"/><path d="M707,417L828,514L866,340Z" fill="#ed4335" stroke="#ed4335"/><path d="M866,340L828,514L939,386Z" fill="#e73c31" stroke="#e73c31"/><path d="M939,386L828,514L985,572Z" fill="#e12122" stroke="#e12122"/><path d="M939,386L985,572L1105,535Z" fill="#da131a" stroke="#da131a"/><path d="M939,386L1105,535L1110,377Z" fill="#d92122" stroke="#d92122"/><path d="M1110,377L1105,535L1236,366Z" fill="#d2231c" stroke="#d2231c"/><path d="M1236,366L1105,535L1286,491Z" fill="#cc1916" stroke="#cc1916"/><path d="M1236,366L1286,491L1412,475Z" fill="#c51e19" stroke="#c51e19"/><path d="M1236,366L1412,475L1458,408Z" fill="#c2261d" stroke="#c2261d"/><path d="M1458,408L1412,475L1476,712Z" fill="#b7060b" stroke="#b7060b"/><path d="M-94,483L-72,782L-55,619Z" fill="#f37975" stroke="#f37975"/><path d="M-94,483L-55,619L125,535Z" fill="#f67576" stroke="#f67576"/><path d="M125,535L-55,619L32,685Z" fill="#f37069" stroke="#f37069"/><path d="M125,535L32,685L230,631Z" fill="#f3685e" stroke="#f3685e"/><path d="M125,535L230,631L169,467Z" fill="#f66661" stroke="#f66661"/><path d="M169,467L230,631L355,551Z" fill="#f55d58" stroke="#f55d58"/><path d="M355,551L230,631L338,717Z" fill="#f1584a" stroke="#f1584a"/><path d="M355,551L338,717L478,678Z" fill="#f14f40" stroke="#f14f40"/><path d="M355,551L478,678L500,574Z" fill="#f3493a" stroke="#f3493a"/><path d="M500,574L478,678L676,696Z" fill="#f03e2e" stroke="#f03e2e"/><path d="M500,574L676,696L699,497Z" fill="#f33627" stroke="#f33627"/><path d="M699,497L676,696L794,625Z" fill="#eb2a1f" stroke="#eb2a1f"/><path d="M699,497L794,625L828,514Z" fill="#ea2423" stroke="#ea2423"/><path d="M828,514L794,625L985,572Z" fill="#e11718" stroke="#e11718"/><path d="M985,572L794,625L973,657Z" fill="#dc1011" stroke="#dc1011"/><path d="M985,572L973,657L1073,618Z" fill="#d5040a" stroke="#d5040a"/><path d="M985,572L1073,618L1105,535Z" fill="#d3000b" stroke="#d3000b"/><path d="M1105,535L1073,618L1244,692Z" fill="#cb0001" stroke="#cb0001"/><path d="M1105,535L1244,692L1286,491Z" fill="#c70004" stroke="#c70004"/><path d="M1286,491L1244,692L1412,475Z" fill="#c10007" stroke="#c10007"/><path d="M1412,475L1244,692L1476,712Z" fill="#b90000" stroke="#b90000"/><path d="M-55,619L-72,782L32,685Z" fill="#f07670" stroke="#f07670"/><path d="M32,685L-72,782L39,823Z" fill="#ed736d" stroke="#ed736d"/><path d="M32,685L39,823L230,631Z" fill="#ef6a61" stroke="#ef6a61"/><path d="M230,631L39,823L275,870Z" fill="#ec6358" stroke="#ec6358"/><path d="M230,631L275,870L322,787Z" fill="#ec5b4d" stroke="#ec5b4d"/><path d="M230,631L322,787L338,717Z" fill="#ee594b" stroke="#ee594b"/><path d="M338,717L322,787L500,818Z" fill="#ec5041" stroke="#ec5041"/><path d="M338,717L500,818L478,678Z" fill="#ed4a3b" stroke="#ed4a3b"/><path d="M478,678L500,818L676,696Z" fill="#ed3e2e" stroke="#ed3e2e"/><path d="M676,696L500,818L710,859Z" fill="#eb3626" stroke="#eb3626"/><path d="M676,696L710,859L805,843Z" fill="#e3291e" stroke="#e3291e"/><path d="M676,696L805,843L794,625Z" fill="#e4251c" stroke="#e4251c"/><path d="M794,625L805,843L932,807Z" fill="#dc1a16" stroke="#dc1a16"/><path d="M794,625L932,807L973,657Z" fill="#da1312" stroke="#da1312"/><path d="M973,657L932,807L1104,842Z" fill="#d0050b" stroke="#d0050b"/><path d="M973,657L1104,842L1073,618Z" fill="#cf0008" stroke="#cf0008"/><path d="M1073,618L1104,842L1244,692Z" fill="#c70001" stroke="#c70001"/><path d="M1244,692L1104,842L1256,778Z" fill="#c00000" stroke="#c00000"/><path d="M1244,692L1256,778L1412,824Z" fill="#b90000" stroke="#b90000"/><path d="M1244,692L1412,824L1476,712Z" fill="#b40000" stroke="#b40000"/><path d="M275,870L710,859L500,818Z" fill="#e84435" stroke="#e84435"/><path d="M275,870L500,818L322,787Z" fill="#ea5243" stroke="#ea5243"/><path d="M710,859L1104,842L805,843Z" fill="#d61614" stroke="#d61614"/><path d="M805,843L1104,842L932,807Z" fill="#d10c0f" stroke="#d10c0f"/><path d="M1104,842L1412,824L1256,778Z" fill="#ba0000" stroke="#ba0000"/></g></svg>